<svg xmlns="http://www.w3.org/2000/svg" viewBox="360 460 560 540" style="width:100%;max-width:360px;height:auto;display:block;"><path fill="#c4894f" d="M744.5 549.2c-7.1 6.4-11.3 12.9-15.4 23.5-8.6 22.1-12.1 37.7-12.1 53.6v9.9l3.4 3.4c3.1 3.1 3.9 3.4 9.6 3.4 7.2 0 7.2-.2 2.5 10.8-3.4 8.1-6.5 20.4-6.5 25.7 0 2.3-1.4 10.9-3.1 19.1-3.1 14.6-3.2 15.4-3.3 43.9-.1 24.5.2 30.1 1.6 36 1.5 5.8 4.8 24.7 4.8 27.1 0 .4-7.5.4-16.7 0-32.1-1.3-71.7-9.8-118.3-25.2-7.4-2.5-19.1-6.2-26-8.4-24-7.5-66.6-22.2-82.6-28.5-19.6-7.8-49.9-15.6-69.4-17.9-7.4-.9-21.6-3.1-31.5-4.8-20.5-3.5-35.2-4-50.7-1.8l-9.8 1.4V977h641V875c0-56.1-.1-102-.2-102-.2 0-2.8.7-5.8 1.5s-19.2 3.8-36 6.6c-16.8 2.7-40.6 7-53 9.5-19.8 3.9-39.8 6.3-53.2 6.4-3.6 0-3.6-.9.7-13 6.7-19.4 8.6-42.7 6.1-77.1-2.1-29-3.5-38.4-8.1-52.9-6.7-21.7-8.5-29.8-9.6-44.9-1.1-15.8-5.5-37.4-8.7-43.8-1.1-2.1-3.3-5-4.9-6.5-7.9-7.4-24.1-13.8-35.1-13.8-4.8 0-5.7.4-9.7 4.2z"><animateTransform attributeName="transform" type="translate" values="0,0;0,-85;0,0" keyTimes="0;0.16;1" dur="1s" repeatCount="indefinite" calcMode="spline" keySplines="0.05 0.9 0.12 1;0.45 0 0.7 0.35"/></path><path fill="#aa80aa" d="M537.7 333.3c-3.8 15.2-6.8 28.9-10.1 46.4-1.9 10-3.7 18.6-4 19.1s-4.5.9-9.3 1c-16.9.4-54.7 3.8-83.3 7.7-63.7 8.5-68.8 9.4-97 16.8l-12.5 3.3-.3 180-.2 180 8.7-1.2c15.2-2.2 38-4.5 61.8-6.1 30.2-2.2 83.6-2 101.4.3 10.3 1.4 19.1 1.6 51 1.1 21.2-.3 43.1-1 48.6-1.6 11.4-1.3 51.4-7.7 74.5-12 8.5-1.6 20.9-3.7 27.5-4.6 21.8-3 30.6-7.5 33.9-17.2 2.8-8.2 1.6-13.8-4.3-20.5-3.8-4.3-3.8-5.5-.6-11.6 2.8-5.2 3-7.7 1.4-13.3-1-3.1-.9-4.4.5-7.3 2.7-5.8 3.9-14.3 2.7-19.2-.6-2.4-1.1-6.1-1.1-8.3 0-5.9-3.3-15.5-7-20.1l-3.2-4.1 2.6-5.8c2.8-6.3 3.3-12.7 1.5-17.9-.8-2.4-.7-3.7.6-6.2 2.4-4.6 3.1-13.3 1.5-18.1-1.3-3.9-1.2-4.3 1.8-9.9 3.4-6.2 4.1-11.3 2.1-16.9-1.1-3-.9-3.3 3.4-7.1 6.4-5.6 11.1-13.4 11-17.9-.2-3 .3-3.9 2.6-5.2 3.1-1.8 12.7-12.9 14.4-16.6 1.4-3.2-.2-4.9-3.1-3.4-1.1.6-3.2 1.1-4.6 1.1-3.8 0-12.6-2.1-12.6-2.9 0-.5 2-1.6 4.5-2.6 14.1-5.3 11.9-23.6-3.7-31.6-2.1-1.1-3.8-2.4-3.8-2.9 0-2.5-26.6-16.1-41-21-5.2-1.8-12.2-4.2-15.5-5.4-3.3-1.3-7.6-2.8-9.5-3.4-1.9-.7-6.9-3.3-11.2-5.9-8.1-4.9-10.2-7.7-9.6-12.9.3-2.8.5-2.9 6.9-3.2 11.8-.5 27.6 7 60.7 28.9 13.1 8.7 26.4 19 32 24.6 8 8.1 19 13.1 25.7 11.7 6.6-1.4 11.5-7.6 11.5-14.5 0-1.8.5-2.9 1.4-2.9 1.5 0 2.6 3 2.6 7.7 0 3.5-6 18.6-8.6 21.4-1.3 1.5-1.5 3-1.1 6.9.6 4.7.4 5.1-2.1 6.4-6.6 3.5-14.8 16.4-13.6 21.3 1.1 4 27.2 22.3 31.9 22.3 3.7 0 4.9 3.1 3.5 9.1-1.4 5.9-.6 13.4 2.1 18.6 1.6 3.1 1.7 4.3.8 6.5-.6 1.6-.9 5.7-.7 9.3.3 5.5.8 6.9 3.3 9.5 2.8 2.9 2.8 3 1 5s-1.8 2.2-.1 7.8c2.4 7.5 5.3 13.2 7.2 13.9 1.2.5 1.4 1.6.9 5.4-.9 6.4 1.6 14 5.7 17.5 2.9 2.4 3.1 2.8 2 5.7-1.7 4.7-2.5 11.3-1.8 14.1.3 1.3 1.8 3.9 3.2 5.6l2.7 3.1-1.8 3.9c-2 4.4-1.7 14.4.6 19.4 1.2 2.6 1 2.9-2.9 6.4-7.9 7.1-10 13.6-6.1 18.6 2.8 3.6 6.4 5.2 13.2 6 6.5.7 11.1-.2 20.2-4.1 13.1-5.6 40.4-20.4 54-29.3 7.9-5.2 42.8-39.3 49.6-48.5 3.3-4.4 6.9-9.1 7.9-10.3 2-2.3 2-4.6 2-123.3 0-73.9-.4-120.9-.9-120.9s-3.2-6.9-5.9-15.3c-3.8-11.7-19-53.9-23.7-66-.7-1.6-11-1.7-196.4-1.7H539.5z"/></svg>
